<svg width="698.71" height="424.87" xmlns="http://www.w3.org/2000/svg"><path d="M520.6 423.54c-21.448-3.966-45.664-13.834-65.893-26.849l-6.693-4.306 19.023-14.22c34.472-25.766 58.01-46.201 85.564-74.284 27.241-27.764 48.513-53.761 68.215-83.366 10.855-16.312 27.072-43.5 25.946-43.5-.266 0-4.554 5.737-9.53 12.75-52.536 74.052-127.81 142-195.32 176.3-7.528 3.826-13.926 6.57-14.218 6.098-3.129-5.062-10.863-32.62-13.707-48.839-2.908-16.585-3.19-43.33-.593-56.382 4.987-25.066 15.154-42.919 34.016-59.73 22.767-20.293 52.039-34.815 100.19-49.705 56.517-17.477 74.403-24.762 96-39.1 15.312-10.167 31.165-26.156 40.707-41.057 2.911-4.546 5.572-8.281 5.913-8.3 1.067-.06 4.83 19.886 6.31 33.464 2.197 20.126 2.744 40.253 1.647 60.627-6.384 118.66-48.499 216.71-106.85 248.75-10.408 5.716-21.735 9.852-31.777 11.602-10.418 1.817-29.252 1.839-38.952.045zM271.86 422c-42.752-3.833-78.356-18.479-108.07-44.458-32.054-28.024-58.492-74.804-68.6-121.38-4.491-20.696-5.993-36.356-7.574-78.946-.82-22.075-2.131-43.647-3.03-49.816-7.073-48.584-28.47-79.565-77.283-111.9L.007 10.668l5.795-1.817C14.675 6.07 33.43 2.297 44.99.97c17.542-2.015 59.848-.716 81.106 2.49 77.634 11.707 157.79 44.193 220.15 89.22 35.284 25.478 66.406 57.347 84.22 86.242l4.448 7.214-12.228 12.192c-13.357 13.318-18.839 20.674-24.646 33.074-12.7 27.117-12.844 62.232-.41 100.57 1.864 5.75 3.248 10.596 3.076 10.768s-1.804-2.508-3.627-5.955c-36.628-69.27-81.887-125.09-136.98-168.96-14.052-11.188-45.157-32.811-47.196-32.811-.273 0 6.522 7.097 15.1 15.772 41.498 41.965 74.06 83.067 100.39 126.73 9.516 15.777 24.93 46.826 31.025 62.5 8.62 22.16 15.544 49.025 15.967 61.94l.21 6.442-9 2.82c-27.48 8.609-67.791 13.197-94.734 10.782zm129.69-76.052c-.363-.586-.445-1.28-.183-1.543.263-.262.743.218 1.07 1.067.675 1.762.1 2.072-.887.476z"/></svg>