<?xml version="1.0" encoding="UTF-8" standalone="no"?>
<!-- Created with Inkscape (http://www.inkscape.org/) -->

<svg
   version="1.1"
   id="svg1"
   width="834.98865"
   height="535.27783"
   viewBox="0 0 834.98865 535.27783"
   sodipodi:docname="team.svg"
   inkscape:version="1.3.2 (091e20e, 2023-11-25, custom)"
   xmlns:inkscape="http://www.inkscape.org/namespaces/inkscape"
   xmlns:sodipodi="http://sodipodi.sourceforge.net/DTD/sodipodi-0.dtd"
   xmlns="http://www.w3.org/2000/svg"
   xmlns:svg="http://www.w3.org/2000/svg">
  <defs
     id="defs1" />
  <sodipodi:namedview
     id="namedview1"
     pagecolor="#ffffff"
     bordercolor="#000000"
     borderopacity="0.25"
     inkscape:showpageshadow="2"
     inkscape:pageopacity="0.0"
     inkscape:pagecheckerboard="0"
     inkscape:deskcolor="#d1d1d1"
     inkscape:zoom="0.68899695"
     inkscape:cx="591.43949"
     inkscape:cy="402.75941"
     inkscape:window-width="1920"
     inkscape:window-height="1051"
     inkscape:window-x="-9"
     inkscape:window-y="-9"
     inkscape:window-maximized="1"
     inkscape:current-layer="g1" />
  <g
     inkscape:groupmode="layer"
     inkscape:label="Image"
     id="g1"
     transform="translate(-3.0113003,-121.08755)">
    <path
       style="fill:#000000"
       d="m 181.58618,651.11329 c 0.3606,-2.88865 1.2762,-7.70914 2.0347,-10.71219 0.7585,-3.00306 1.3791,-6.914 1.3791,-8.69098 0,-1.77699 0.45,-3.509 1,-3.84892 0.55,-0.33992 1,-2.76648 1,-5.39235 0,-2.62588 0.3375,-5.10739 0.75,-5.51447 0.6778,-0.66888 2.4115,-9.55424 3.9205,-20.09318 0.315,-2.2 0.8901,-4.225 1.278,-4.5 0.3879,-0.275 1.2444,-4.1 1.9033,-8.5 0.6589,-4.4 1.4397,-9.575 1.7351,-11.5 0.2954,-1.925 0.9189,-4.4 1.3855,-5.5 0.8014,-1.88926 2.6766,-11.7967 3.6908,-19.5 0.2535,-1.925 0.847,-4.4 1.3191,-5.5 0.472,-1.1 1.1319,-3.575 1.4663,-5.5 2.1104,-12.14812 3.1435,-16.92546 3.8027,-17.58467 0.4118,-0.41177 0.7449,-1.68617 0.7403,-2.832 -0.012,-2.99181 3.3676,-16.02075 4.2584,-16.41667 0.4125,-0.18333 0.75,-1.42083 0.75,-2.75 0,-1.32916 0.4012,-2.41666 0.8916,-2.41666 0.4904,0 1.1739,-1.125 1.5191,-2.5 0.3451,-1.375 1.0688,-2.5 1.6084,-2.5 0.5395,0 0.9809,-0.46961 0.9809,-1.04357 0,-0.94877 5.6871,-7.67098 8.7608,-10.35535 0.6934,-0.60559 3.003,-2.78858 5.1323,-4.85108 2.1294,-2.0625 4.1692,-3.75 4.5329,-3.75 0.3637,0 1.8746,-1.125 3.3574,-2.5 1.4829,-1.375 3.2258,-2.5 3.8731,-2.5 0.6472,0 1.3268,-0.38441 1.5102,-0.85425 0.3792,-0.9718 14.3015,-9.6306 20.3333,-12.64605 2.2,-1.09984 4.225,-2.2247 4.5,-2.4997 0.5589,-0.55892 7.0881,-3.73133 20.5,-9.96061 4.95,-2.29908 9.7814,-4.59847 10.7364,-5.10976 0.9551,-0.51129 2.4176,-0.92962 3.25,-0.92962 0.8325,0 1.5136,-0.45 1.5136,-1 0,-0.55 0.5749,-1 1.2776,-1 1.381,0 9.4939,-4.07928 16.7224,-8.4082 2.475,-1.48221 5.7375,-3.22037 7.25,-3.8626 1.5125,-0.64222 2.75,-1.51902 2.75,-1.94844 0,-0.42942 0.684,-0.78076 1.5199,-0.78076 0.8359,0 3.302,-1.125 5.4801,-2.5 2.1781,-1.375 4.6231,-2.5 5.4331,-2.5 1.8767,0 3.5541,-5.93948 3.5613,-12.61059 l 0.01,-5.11059 9,-1.3335 9,-1.3335 v -5.75669 c 0,-7.87475 -1.8033,-15.85513 -3.5828,-15.85513 -0.7794,0 -1.4172,-0.45 -1.4172,-1 0,-0.55 -0.4539,-1 -1.0086,-1 -1.5669,0 -6.9914,-5.17149 -6.9914,-6.6653 0,-0.73409 -0.3401,-1.3347 -0.7558,-1.3347 -1.2857,0 -6.2442,-12.35859 -6.2442,-15.56311 0,-1.27537 -0.45,-2.59697 -1,-2.93689 -0.55,-0.33992 -1,-3.25468 -1,-6.47723 0,-7.0431 -0.648,-9.02277 -2.9533,-9.02277 -2.8678,0 -7.8724,-2.94356 -9.8798,-5.81091 -2.3095,-3.29909 -3.0595,-6.33128 -4.1955,-16.96403 -0.4863,-4.55121 -1.2147,-8.80976 -1.6187,-9.46343 -0.7526,-1.21779 -2.0554,-7.2781 -3.0306,-14.09833 -0.3184,-2.22644 -0.081,-4.30395 0.5646,-4.95 0.6124,-0.61232 1.1133,-1.83198 1.1133,-2.71036 0,-0.87837 1.8,-3.3547 4,-5.50294 4.5028,-4.39682 4.5336,-4.50174 2.5944,-8.84887 -0.7731,-1.73312 -2.1707,-5.40113 -3.1058,-8.15113 -0.9351,-2.75 -2.0817,-5.90001 -2.5482,-7.00001 -2.6918,-6.34811 -3.0802,-10.82413 -2.5598,-29.5 0.5878,-21.08952 1.3723,-30.92606 2.5921,-32.5 0.4263,-0.55 1.0828,-3.12701 1.459,-5.72669 0.3761,-2.59968 1.1079,-4.98874 1.6261,-5.30902 0.5182,-0.32028 0.9422,-1.68077 0.9422,-3.02331 0,-1.34254 0.4013,-2.44098 0.8916,-2.44098 0.4904,0 1.1734,-1.12282 1.5179,-2.49514 0.3444,-1.37233 2.7557,-4.65901 5.3584,-7.30373 4.6785,-4.75409 10.3229,-7.20113 16.6101,-7.20113 2.0781,0 2.3493,-0.46643 2.3493,-4.0404 0,-2.85696 0.6837,-4.76817 2.3343,-6.52512 2.8919,-3.07831 10.5469,-7.43448 13.0644,-7.43448 1.0307,0 1.87396,-0.34472 1.87396,-0.76605 0,-0.67254 8.3147,-2.80296 19,-4.86829 5.3783,-1.03954 32.7606,-0.74862 39.5,0.41967 7.7345,1.34078 15.4645,3.11626 18,4.13437 1.1,0.44169 3.7028,1.54045 5.784,2.44169 2.0811,0.90123 4.4436,1.63861 5.25,1.63861 0.8063,0 1.466,0.39751 1.466,0.88337 0,0.48585 0.7875,1.14778 1.75,1.47096 3.215,1.07948 12.3372,7.73552 17.401,12.69659 4.7019,4.60653 10.6407,15.27368 12.4982,22.44908 0.2848,1.1 0.8882,2.9 1.341,4 2.1504,5.2239 3.5098,24.59059 3.5098,50 0,14.85 -0.225,29.22895 -0.5,31.95322 -0.4827,4.78217 -0.3964,4.98882 2.5,5.98394 4.3266,1.48647 7.3466,5.35713 8.1001,10.3813 0.7224,4.81737 -0.1583,15.94621 -1.5391,19.4497 -0.4838,1.22752 -1.6533,4.93185 -2.5989,8.23185 -0.9455,3.3 -2.1113,6.4275 -2.5906,6.95 -0.4793,0.5225 -0.8715,1.9475 -0.8715,3.16666 0,1.21917 -0.3375,2.36667 -0.75,2.55 -0.4125,0.18334 -1.65,2.13334 -2.75,4.33334 -2.1271,4.25421 -5.1932,7.41199 -7.25,7.46673 -0.6875,0.0183 -1.25,0.53205 -1.25,1.14167 0,0.66576 -0.9434,0.87161 -2.3625,0.51546 -2.2318,-0.56016 -2.3958,-0.27577 -2.9644,5.14159 -1.1656,11.10372 -2.8317,20.74485 -3.7473,21.68455 -0.5092,0.5225 -0.9258,1.985 -0.9258,3.25 0,1.265 -0.45,2.3 -1,2.3 -0.55,0 -1.0021,0.5625 -1.0047,1.25 -0.01,1.70684 -5.9247,7.94786 -9.0823,9.57781 -2.4037,1.2408 -2.5218,1.634 -1.8022,6 0.4235,2.5697 0.7968,7.41251 0.8296,10.76178 l 0.06,6.0896 7.25,1.26426 c 3.9875,0.69533 7.8125,1.42839 8.5,1.62901 0.8459,0.24684 1.25,2.62284 1.25,7.3491 0,8.5805 1.1865,11.35775 5.8677,13.73431 1.9978,1.01427 3.8573,2.07952 4.1323,2.36723 1.3975,1.46207 6.118,3.9769 7.4648,3.9769 0.8444,0 1.5352,0.45 1.5352,1 0,0.55 0.4377,1 0.9727,1 0.8347,0 9.3438,3.58917 14.0273,5.91678 1.6262,0.80818 20.0083,6.53202 26.5,8.25162 2.2,0.58276 4.9,1.41067 6,1.8398 1.1,0.42914 4.25,1.54582 7,2.48152 7.1193,2.42235 26.1073,11.07632 27.5,12.53337 0.275,0.2877 1.7672,1.33003 3.316,2.31629 4.9676,3.16332 13.5206,11.02745 18.184,16.71947 2.5582,3.12244 5.5114,11.50836 5.505,15.63212 0,1.75504 0.3975,3.43972 0.8894,3.74373 0.4919,0.30401 1.1212,2.24307 1.3984,4.30902 0.6403,4.77226 2.472,12.16319 3.657,14.75627 0.5027,1.1 1.1369,3.35 1.4095,5 0.9996,6.05185 2.7466,13.04534 3.6811,14.73643 0.5278,0.95504 0.9596,2.84636 0.9596,4.20295 0,1.35658 0.4176,3.50018 0.928,4.76356 0.5104,1.26338 1.6722,5.89706 2.5819,10.29706 0.9097,4.4 2.0671,8.78139 2.5721,9.73643 0.5049,0.95504 0.918,2.46565 0.918,3.35692 0,2.13906 2.9861,15.35766 4.0451,17.90665 0.457,1.1 1.0314,3.575 1.2764,5.5 0.6507,5.11206 2.806,15.18723 3.7437,17.5 0.4459,1.1 1.0182,3.575 1.2716,5.5 1.0141,7.70223 2.8893,17.61066 3.6906,19.5 0.9756,2.30034 2.071,12.26188 2.3091,21 l 0.1635,6 -234.7847,0.25209 -234.78466,0.2521 z m 479.41376,-59.9311 c 0,-1.74845 -0.4133,-4.56095 -0.9184,-6.25 -0.9419,-3.14926 -2.9319,-12.72459 -3.7556,-18.07099 -0.2543,-1.65 -0.8241,-3.9 -1.2662,-5 -0.4422,-1.1 -1.586,-5.6 -2.5418,-10 -0.9558,-4.4 -2.0802,-8.9 -2.4987,-10 -0.6959,-1.829 -4.0437,-14.98831 -5.9785,-23.5 -1.8933,-8.32855 -3.3372,-13.61835 -4.1589,-15.23643 -0.485,-0.95504 -0.8819,-2.77754 -0.8819,-4.05 0,-1.27247 -0.4373,-2.75089 -0.9718,-3.28538 -0.5345,-0.5345 -1.2754,-4.23869 -1.6465,-8.23155 -0.3711,-3.99285 -1.0588,-7.49709 -1.5282,-7.7872 -0.4694,-0.29011 -0.8535,-1.57969 -0.8535,-2.86574 0,-5.01877 -7.3119,-16.83367 -15.5,-25.0457 -4.4,-4.41284 -9.0504,-8.83319 -10.3342,-9.82301 -4.469,-3.44551 -15.211,-9.67498 -16.6834,-9.67498 -0.8153,0 -1.4824,-0.34385 -1.4824,-0.7641 0,-0.80311 -7.2992,-4.2359 -9.0069,-4.2359 -0.5462,0 -0.9931,-0.41871 -0.9931,-0.93045 0,-0.51175 -1.0125,-1.07425 -2.25,-1.25 -1.4459,-0.20536 -2.3642,-1.1236 -2.5695,-2.56955 -0.1758,-1.2375 0.082,-2.25 0.5727,-2.25 0.4908,0 1.9334,-2.08461 3.2059,-4.63246 2.2588,-4.52294 10.0626,-13.36754 11.7944,-13.36754 0.4781,0 1.7417,-0.80417 2.8079,-1.78705 1.0663,-0.98287 3.4011,-2.38746 5.1886,-3.12132 l 3.25,-1.33427 v -9.63814 c 0,-10.7945 -0.3445,-11.36729 -7.6269,-12.68121 -2.1302,-0.38433 -4.3231,-1.00785 -4.8731,-1.38559 -0.55,-0.37774 -3.7,-1.50231 -7,-2.49905 -3.3,-0.99674 -7.0337,-2.204 -8.297,-2.68281 -1.2634,-0.47881 -3.1759,-0.87056 -4.25,-0.87056 -1.0742,0 -1.953,-0.39249 -1.953,-0.87219 0,-0.47971 -1.7039,-1.14466 -3.7864,-1.47767 -2.0825,-0.333 -6.02,-1.73863 -8.75,-3.12362 -2.73,-1.38498 -5.5261,-2.52004 -6.2136,-2.52234 -0.6875,-0.002 -1.25,-0.45418 -1.25,-1.00418 0,-0.55 0.4012,-1 0.8916,-1 0.4904,0 1.1739,-1.125 1.5191,-2.5 0.3451,-1.375 1.0688,-2.5 1.6084,-2.5 0.5395,0 0.9809,-1.125 0.9809,-2.5 0,-1.375 0.45,-2.5 1,-2.5 0.55,0 1,-0.8909 1,-1.97977 0,-1.08887 0.7313,-3.80754 1.6252,-6.04148 1.8957,-4.73774 1.2949,-6.10656 -1.3036,-2.97028 -6.1219,7.38888 -17.3216,17.28804 -17.3216,15.31022 0,-0.50528 0.4133,-1.34619 0.9185,-1.86869 1.4964,-1.5478 9.0815,-16.68707 9.0815,-18.126 0,-0.7282 0.45,-1.324 1,-1.324 0.55,0 1,-0.49449 1,-1.09887 0,-1.06813 2.2457,-6.64851 4.0714,-10.11734 1.1385,-2.16288 2.9685,-9.20288 3.583,-13.78379 0.2583,-1.925 0.8451,-4.4 1.304,-5.5 0.8994,-2.15576 2.8994,-16.09064 4.1621,-29 0.4304,-4.4 1.2058,-10.7 1.7232,-14 0.5173,-3.3 1.4804,-10.275 2.1401,-15.50001 0.6598,-5.225 1.5755,-10.4 2.0349,-11.5 0.4594,-1.1 1.0947,-4.025 1.4117,-6.5 1.0147,-7.9197 3.0485,-17.81224 3.8209,-18.58467 0.4118,-0.41177 0.7487,-1.80477 0.7487,-3.09557 0,-1.29079 0.4127,-3.12829 0.917,-4.08333 0.5043,-0.95504 2.8549,-5.67393 5.2235,-10.48643 2.3685,-4.8125 4.6559,-8.75 5.083,-8.75 0.4271,0 0.7765,-0.51241 0.7765,-1.13869 0,-1.547 10.186,-11.80964 11.75,-11.83836 0.6875,-0.0126 1.25,-0.3743 1.25,-0.80372 0,-0.42941 1.2375,-1.31183 2.75,-1.96092 1.5125,-0.64908 5.1748,-2.54774 8.1384,-4.21923 2.9636,-1.6715 6.0011,-3.03908 6.75,-3.03908 0.7489,0 1.3616,-0.39893 1.3616,-0.8865 0,-0.48758 1.2375,-1.13009 2.75,-1.42781 4.7568,-0.93632 11.6588,-2.90983 14.061,-4.02048 3.2131,-1.48553 28.9124,-1.34183 30.4243,0.17012 0.6406,0.64057 2.1906,1.16467 3.4445,1.16467 2.4821,0 7.8586,1.87297 16.0975,5.60774 2.9026,1.31574 5.7151,2.39226 6.25,2.39226 0.535,0 0.9727,0.39751 0.9727,0.88337 0,0.48585 0.7875,1.13195 1.75,1.43577 5.3769,1.69725 20.25,13.8963 20.25,16.60919 0,0.51085 0.5738,1.52345 1.2751,2.25024 2.4979,2.58874 10.6504,20.50667 11.3184,24.87608 0.3737,2.44494 1.0198,4.89535 1.4357,5.44535 0.4159,0.55 0.9975,3.025 1.2923,5.5 0.2949,2.475 1.2809,8.775 2.1911,14 2.2977,13.18965 5.297,33.54298 7.5156,51.00001 1.9954,15.70072 4.3738,27.92308 6.0785,31.23643 0.4913,0.95504 0.8961,2.53004 0.8995,3.5 0,0.96996 0.6784,3.05251 1.5,4.62787 0.8216,1.57537 1.4938,3.48787 1.4938,4.25 0,0.76214 0.45,1.3857 1,1.3857 0.55,0 1,0.55604 1,1.23564 0,0.67961 1.1926,3.71711 2.6502,6.75 1.4576,3.0329 3.8201,7.98936 5.25,11.01436 1.4299,3.025 3.0368,5.81303 3.5708,6.19562 0.5341,0.3826 0.6894,0.97732 0.3451,1.32161 -0.966,0.96596 -10.9615,-8.05668 -17.2196,-15.54361 l -2.9035,-3.47362 0.7139,4 c 1.3078,7.32719 4.6077,16.03353 6.633,17.5 0.3798,0.275 1.0072,1.51471 1.3943,2.75492 0.5264,1.68687 0.2455,2.40691 -1.1152,2.8582 -1.0005,0.3318 -3.7646,1.47246 -6.1426,2.5348 -2.378,1.06233 -5.6498,2.19677 -7.2708,2.52096 -1.621,0.32419 -3.1894,0.98132 -3.4854,1.46028 -0.296,0.47896 -1.6428,0.87084 -2.9928,0.87084 -1.35,0 -3.2359,0.41302 -4.191,0.91782 -1.8358,0.9704 -14.9067,5.15439 -21.8699,7.00059 -6.0945,1.61586 -6.4602,2.45431 -5.7059,13.0809 0.6423,9.04882 0.7351,9.32378 3.4996,10.36726 1.5619,0.58955 2.8398,1.42325 2.8398,1.85266 0,0.42942 0.48,0.78077 1.0667,0.78077 1.1905,0 7.3382,4.42216 10.4265,7.5 1.1037,1.1 2.9068,3.79313 4.0068,5.98474 1.1,2.19161 2.5625,4.58625 3.25,5.32143 0.6875,0.73518 1.25,1.6878 1.25,2.11694 0,1.84769 6.1243,6.95674 9.6545,8.05404 3.9064,1.21426 7.6992,2.79326 14.7833,6.15446 2.1658,1.02761 4.5283,1.86839 5.25,1.86839 0.7217,0 1.3122,0.44142 1.3122,0.98094 0,0.53953 1.125,1.26331 2.5,1.60841 1.375,0.34511 2.5,0.96479 2.5,1.37708 0,1.10723 9.8732,6.03356 12.0923,6.03356 1.0492,0 1.9077,0.34768 1.9077,0.77264 0,0.86384 7.5032,3.0702 13.2563,3.89809 2.0659,0.29729 4.005,0.943 4.309,1.4349 0.304,0.4919 1.6712,0.89437 3.0382,0.89437 1.367,0 5.503,0.73693 9.191,1.63763 7.2516,1.771 16.5525,7.72962 17.6978,11.33806 0.3534,1.11337 1.0622,2.02431 1.5751,2.02431 0.5129,0 0.9326,0.675 0.9326,1.5 0,0.825 0.3375,1.50284 0.75,1.50632 0.9811,0.008 4.25,5.77029 4.25,7.49138 0,0.7346 0.5253,1.51073 1.1674,1.72475 1.2288,0.40961 2.3221,16.85231 3.4427,51.77755 0.3265,10.175 0.9978,18.9275 1.4918,19.45 0.4939,0.5225 0.8981,10.085 0.8981,21.25 v 20.3 h -88.5 -88.5 z M 4.9999848,577.92021 c 0,-2.44254 -0.45,-4.71909 -1,-5.05901 -1.24915,-0.77202 -1.34748,-24.73038 -0.10691,-26.05 0.4912,-0.5225 1.16134,-6.125 1.48919,-12.45 0.64639,-12.47045 2.66581,-27.39768 3.86772,-28.58958 0.4125,-0.40907 0.75,-1.8217 0.75,-3.13919 0,-2.5738 2.5502402,-11.65938 4.0721692,-14.50766 0.51031,-0.95504 0.92783,-2.38107 0.92783,-3.16896 0,-0.7879 0.65553,-2.7065 1.45672,-4.26357 0.8012,-1.55708 2.03608,-4.29354 2.74408,-6.08104 0.7081,-1.7875 1.5478,-3.25 1.8661,-3.25 0.3182,0 1.6139,-2.07302 2.8793,-4.60671 2.8921,-5.79083 15.2572,-18.40037 20.5538,-20.96016 2.2,-1.06322 4.15,-2.27062 4.3333,-2.68312 0.1834,-0.4125 0.7481,-0.75 1.2549,-0.75 0.5069,0 3.2536,-1.125 6.1039,-2.5 2.8502,-1.375 5.773,-2.5 6.4951,-2.5 0.722,0 1.3128,-0.44469 1.3128,-0.98819 0,-0.5435 1.81,-1.2776 4.0222,-1.63135 2.2122,-0.35374 4.2637,-1.03406 4.559,-1.51182 0.2953,-0.47775 1.4164,-0.86864 2.4914,-0.86864 1.075,0 2.7359,-0.394 3.691,-0.87556 0.955,-0.48156 4.4364,-1.68882 7.7364,-2.68281 3.3,-0.99399 6.45,-2.08062 7,-2.41474 0.55,-0.33411 3.5875,-1.44993 6.749996,-2.47961 3.1625,-1.02967 5.75,-2.24904 5.75,-2.7097 0,-0.46067 1.0125,-0.85189 2.25,-0.86939 1.2375,-0.0175 3.1235,-0.69249 4.1911,-1.5 1.0677,-0.8075 2.7552,-1.46819 3.75,-1.46819 0.9949,0 1.8089,-0.45 1.8089,-1 0,-0.55 0.6811,-1 1.5136,-1 0.8324,0 2.2949,-0.4282 3.25,-0.95156 0.955,-0.52336 3.5364,-1.73741 5.7364,-2.6979 2.2,-0.96048 4.225,-2.0072 4.5,-2.32604 0.275,-0.31884 2.525,-1.45486 5,-2.5245 2.475,-1.06964 4.725,-2.18222 5,-2.4724 0.6514,-0.68732 10.984,-5.68308 13.25,-6.4063 0.9625,-0.3072 1.75,-1.47266 1.75,-2.58992 0,-1.11726 0.4047,-2.03138 0.8993,-2.03138 0.4946,0 1.1407,-1.9125 1.4357,-4.25 0.2951,-2.3375 1.2684,-7.85 2.163,-12.25 2.9555,-14.53655 2.9529,-14.10102 0.1037,-17.17375 -1.4309,-1.5432 -2.6017,-3.37291 -2.6017,-4.06603 0,-0.69312 -0.4012,-1.26022 -0.8916,-1.26022 -0.4904,0 -1.1739,-1.125 -1.519,-2.5 -0.3451,-1.375 -1.0689,-2.5 -1.6084,-2.5 -0.5396,0 -0.981,-0.675 -0.981,-1.5 0,-0.825 -0.45,-1.5 -1,-1.5 -0.55,0 -1,-0.71807 -1,-1.59571 0,-0.87764 -0.6357,-2.79014 -1.4128,-4.25 -2.6914,-5.05663 -5.6693,-12.315 -6.2561,-15.24871 -0.3242,-1.62096 -0.9813,-3.1894 -1.4603,-3.48541 -0.4789,-0.29601 -0.8708,-1.67989 -0.8708,-3.07528 0,-1.39539 -0.7069,-4.96884 -1.5709,-7.94099 -1.4249,-4.90133 -1.8351,-5.4039 -4.4112,-5.4039 -3.1168,0 -7.6814,-4.49316 -8.4595,-8.32708 -1.8646,-9.18792 -2.6546,-16.92418 -2.8415,-27.82728 -0.2332,-13.60452 -0.1835,-13.75135 5.8928,-17.41949 1.5764,-0.95159 1.6304,-1.43239 0.4743,-4.22333 -1.8366,-4.43394 -2.1292,-48.55045 -0.334,-50.3499 0.6875,-0.68911 1.25,-2.0214 1.25,-2.96065 0,-6.07783 13.6917,-22.86895 22.75,-27.90006 2.3375,-1.29828 4.25,-2.67886 4.25,-3.06796 0,-0.38909 1.125,-0.9898 2.5,-1.33491 1.375,-0.3451 2.5,-1.06888 2.5,-1.60841 0,-0.53952 0.675,-0.98094 1.5,-0.98094 0.825,0 1.5,-0.41968 1.5,-0.93262 0,-0.51293 0.8207,-1.19308 1.8237,-1.51143 1.0031,-0.31836 2.704,-1.36118 3.78,-2.31739 1.0759,-0.95621 3.5177,-2.61602 5.4262,-3.68848 1.9086,-1.07245 4.3701,-2.79673 5.4701,-3.83173 1.1,-1.03501 2.7875,-2.31088 3.75,-2.83528 1.5496,-0.84424 1.75,-0.43403 1.75,3.58174 0,2.49435 0.2302,4.53519 0.5116,4.53519 0.2814,0 5.2715,-4.75989 11.0892,-10.57752 5.8176,-5.81764 10.8567,-10.29834 11.1979,-9.95712 0.3412,0.34122 0.7334,3.52258 0.8715,7.0697 0.1381,3.54712 0.8281,7.46533 1.5334,8.70712 l 1.2824,2.25782 0.3234,-2.75 c 0.3718,-3.16072 2.2105,-3.50963 6.5549,-1.24384 1.5754,0.82161 3.4879,1.49384 4.25,1.49384 0.7621,0 1.3857,0.35093 1.3857,0.77986 0,0.42892 2.25,1.65298 5,2.72014 2.75,1.06715 5,2.19036 5,2.49602 0,0.30565 2.0207,1.44409 4.4905,2.52986 2.4698,1.08576 4.4948,2.31162 4.5,2.72412 0.01,0.4125 0.4705,0.75 1.034,0.75 1.2701,0 14.3509,8.14158 14.8088,9.21715 0.1834,0.43057 0.8914,0.78285 1.5734,0.78285 2.2026,0 13.3368,11.66126 15.2767,16 0.3689,0.825 0.9322,1.725 1.2519,2 1.2227,1.05192 4.0744,10.64552 4.0697,13.69098 0,1.75504 0.5041,3.50564 1.1264,3.89021 1.1108,0.68652 0.8096,16.48676 -0.7325,38.41881 l -0.5976,8.50001 3.5994,1.90747 c 1.9796,1.04911 3.5993,2.51161 3.5993,3.25 0,0.73839 0.3989,1.34253 0.8865,1.34253 1.6059,0 2.0723,8.31082 1.1504,20.5 -0.4992,6.6 -1.211,13.45044 -1.5818,15.2232 -0.8058,3.85222 -4.9387,8.2768 -7.7312,8.2768 -2.4664,0 -4.6496,2.71536 -4.6921,5.83586 -0.044,3.20884 -3.356,15.58694 -4.2809,15.99747 -0.413,0.18333 -0.7509,1.33483 -0.7509,2.55887 0,1.22405 -0.6607,3.09905 -1.4682,4.16667 -0.8075,1.06762 -1.4825,2.46644 -1.5,3.1085 -0.081,2.98185 -10.3696,18.6493 -17.7748,27.068 -1.588,1.8054 -1.8754,3.24804 -1.4943,7.5 0.2595,2.89555 0.8691,5.69213 1.3546,6.21463 0.4855,0.5225 0.8827,2.51496 0.8827,4.4277 0,1.91273 0.7418,6.66631 1.6485,10.56351 l 1.6485,7.08582 14.1015,6.95658 c 7.7558,3.82612 15.6026,7.82477 17.4373,8.8859 l 3.3359,1.92931 -3.8359,1.41632 c -2.1097,0.77897 -4.6233,1.66422 -5.5858,1.96721 -0.9625,0.303 -1.75,0.94843 -1.75,1.43428 0,0.48585 -1.125,0.88337 -2.5,0.88337 -1.375,0 -2.5,0.45 -2.5,1 0,0.55 -0.5625,1.01008 -1.25,1.0224 -0.6875,0.0123 -3.95,1.35224 -7.25,2.9776 -3.3,1.62535 -6.5625,2.96527 -7.25,2.97759 -0.6875,0.0123 -1.25,0.36256 -1.25,0.7783 0,0.41573 -1.4625,1.37707 -3.25,2.13629 -1.7875,0.75923 -6.0515,3.11908 -9.4755,5.24412 -3.424,2.12503 -6.5169,3.8637 -6.873,3.8637 -0.7074,0 -11.5727,7.65984 -15.0959,10.64236 -1.2069,1.0217 -3.4569,2.85949 -5,4.08398 -5.1244,4.06643 -8.7827,7.71646 -13.3037,13.27365 -2.4609,3.025 -4.7056,5.725 -4.9881,6 -0.2826,0.275 -1.0043,1.4 -1.6038,2.5 -0.5994,1.1 -2.268,4.11955 -3.7079,6.71011 -3.2667,5.87742 -7.7021,18.57516 -7.7021,22.04997 0,1.43534 -0.4411,3.76999 -0.9803,5.18811 -0.5392,1.41812 -1.48,5.38491 -2.0907,8.8151 -1.2116,6.80479 -2.0072,10.60493 -4.4464,21.23671 -0.8832,3.85 -2.0004,8.8 -2.4826,11 -0.4822,2.2 -1.603,7.15 -2.4906,11 -0.8877,3.85 -1.9763,9.025 -2.4193,11.5 -1.5955,8.91521 8.2656,8 -86.197096,8 H 4.9999848 Z"
       id="path1" />
  </g>
</svg>
